<?xml version="1.0" encoding="UTF-8"?>
<svg id="Livello_1" data-name="Livello 1" xmlns="http://www.w3.org/2000/svg" viewBox="0 0 189.32 31.91">
  <defs>
    <style>
      .cls-1 {
        fill: #000;
      }

      .cls-1, .cls-2 {
        stroke-width: 0px;
      }

      .cls-3 {
        fill: #fff;
      }

      .cls-3, .cls-4 {
        stroke: #007497;
        stroke-linecap: round;
        stroke-miterlimit: 10;
      }

      .cls-4 {
        fill: none;
      }

      .cls-2 {
        fill: #00abd9;
      }
    </style>
  </defs>
  <g>
    <path class="cls-2" d="M8.49,5.13l-2.58,12.13h-3.15l2.58-12.13h3.15Z"/>
    <path class="cls-2" d="M16.11,5.13l-.52,2.43h-1.87l-2.06,9.7h-3.15l2.06-9.7h-1.87l.52-2.43h6.89Z"/>
    <path class="cls-2" d="M22.74,8.8h-2.93l.19-.9c.09-.42.11-.69.06-.8-.05-.11-.16-.17-.34-.17-.19,0-.35.08-.48.23-.13.15-.23.39-.3.7-.09.41-.1.71-.03.92.06.2.31.45.73.74,1.23.83,1.97,1.52,2.22,2.05.25.53.25,1.4,0,2.58-.18.86-.42,1.5-.71,1.91-.29.41-.75.75-1.39,1.03-.64.28-1.34.42-2.11.42-.84,0-1.53-.16-2.06-.48-.53-.32-.83-.73-.91-1.22-.08-.5-.02-1.2.17-2.11l.17-.79h2.93l-.31,1.48c-.1.45-.12.75-.06.88.05.13.19.19.4.19s.38-.08.52-.25c.14-.16.24-.41.31-.73.15-.71.15-1.18,0-1.4-.15-.22-.57-.59-1.24-1.1-.67-.52-1.11-.9-1.32-1.13-.21-.23-.35-.56-.43-.97s-.05-.94.09-1.59c.2-.93.46-1.61.79-2.04.33-.43.78-.77,1.36-1.01.58-.24,1.25-.36,2-.36.82,0,1.49.13,2.01.4s.83.6.93,1c.1.4.05,1.09-.15,2.05l-.1.48Z"/>
  </g>
  <g>
    <path class="cls-1" d="M32.5,16.95h-1.5l-1.84-3.05c-.34-.57-.64-.94-.88-1.1-.24-.16-.54-.24-.89-.24h-1.24v4.39h-1.26V6.21h3.21c.93,0,1.71.25,2.33.74s.93,1.22.93,2.19c0,.76-.2,1.4-.59,1.91-.39.51-.94.89-1.63,1.12v.03c.22.14.42.28.59.44s.35.39.54.7l2.23,3.61ZM26.15,7.35v4.08h1.71c.62,0,1.15-.2,1.56-.61.42-.4.63-.93.63-1.57,0-.57-.19-1.03-.56-1.38s-.91-.52-1.61-.52h-1.72Z"/>
    <path class="cls-1" d="M39.62,13.39h-5.43c.02.86.25,1.53.69,2,.44.47,1.05.7,1.84.7.34,0,.69-.05,1.04-.15.35-.1.69-.27,1.03-.49l.57.88c-.43.28-.87.48-1.3.61s-.91.19-1.43.19c-1.16,0-2.06-.34-2.71-1.03s-.98-1.65-.98-2.88.32-2.23.98-2.98c.66-.75,1.51-1.13,2.56-1.13s1.77.33,2.33.98c.55.65.83,1.55.83,2.71v.61ZM38.36,12.39c0-.71-.18-1.26-.52-1.66s-.81-.6-1.4-.6-1.08.2-1.49.61-.66.96-.75,1.64h4.15Z"/>
  </g>
  <g>
    <path class="cls-4" d="M59.74,3.5c-4.19-4.19-10.8-3.89-14.88.21-4.85,4.86-4.5,13.58,1,17.75,4.58,3.48,10.86,3.38,15.28-1.21"/>
    <g>
      <path class="cls-1" d="M51.51,10.72c-.09-.03-.18-.05-.25-.06-.07-.01-.17-.02-.28-.02-.62,0-1.12.27-1.48.8-.36.53-.54,1.2-.54,2v3.91h-1.23v-7.67h1.23v1.52h.03c.17-.54.44-.95.8-1.23.36-.28.77-.42,1.24-.42.15,0,.29,0,.39.02s.2.04.29.07l-.2,1.09Z"/>
      <path class="cls-1" d="M59.27,17.34h-1.23v-1.21h-.03c-.25.46-.58.81-.97,1.05-.4.23-.86.35-1.39.35-.91,0-1.6-.27-2.06-.82-.46-.54-.69-1.36-.69-2.45v-4.59h1.22v4.39c0,.81.15,1.42.46,1.82s.77.61,1.39.61,1.09-.22,1.48-.66c.39-.44.58-1.02.58-1.73v-4.42h1.23v7.67Z"/>
      <path class="cls-1" d="M62.38,7.83c-.25,0-.46-.08-.63-.25-.17-.17-.25-.37-.25-.62s.08-.45.25-.62c.17-.17.38-.25.63-.25s.46.08.63.25.25.37.25.62-.08.45-.25.62-.38.25-.63.25ZM62.98,17.34h-1.23v-7.67h1.23v7.67Z"/>
      <path class="cls-1" d="M69.12,17.25c-.21.08-.42.15-.62.19s-.43.06-.69.06c-.61,0-1.09-.18-1.44-.54-.35-.36-.52-.89-.52-1.58v-4.67h-1.32v-1.05h1.32v-1.87l1.23-.4v2.27h1.93v1.05h-1.93v4.53c0,.44.08.76.24.95.16.19.39.29.71.29.15,0,.29-.02.43-.05.14-.04.26-.08.35-.12l.3.94Z"/>
    </g>
    <line class="cls-3" x1="45.79" y1="21.64" x2="36.02" y2="31.41"/>
  </g>
</svg>