<?xml version="1.0" encoding="utf-8"?>
<!-- Generator: Adobe Illustrator 28.3.0, SVG Export Plug-In . SVG Version: 6.00 Build 0)  -->
<svg version="1.1" id="Livello_1" xmlns="http://www.w3.org/2000/svg" xmlns:xlink="http://www.w3.org/1999/xlink" x="0px" y="0px"
	 viewBox="0 0 74.2 31.9" style="enable-background:new 0 0 74.2 31.9;" xml:space="preserve">
<style type="text/css">
	.st0{fill:#00ABD9;}
	.st1{fill:none;stroke:#007497;stroke-linecap:round;stroke-miterlimit:10;}
</style>
<g>
	<path class="st0" d="M8.5,5.1L5.9,17.3H2.8L5.3,5.1H8.5z"/>
	<path class="st0" d="M16.1,5.1l-0.5,2.4h-1.9l-2.1,9.7H8.5l2.1-9.7H8.7l0.5-2.4C9.2,5.1,16.1,5.1,16.1,5.1z"/>
	<path class="st0" d="M22.7,8.8h-2.9L20,7.9c0.1-0.4,0.1-0.7,0.1-0.8c0-0.1-0.2-0.2-0.3-0.2c-0.2,0-0.4,0.1-0.5,0.2S19,7.5,18.9,7.9
		c-0.1,0.4-0.1,0.7,0,0.9C19,9,19.2,9.2,19.6,9.5c1.2,0.8,2,1.5,2.2,2.1c0.2,0.5,0.2,1.4,0,2.6c-0.2,0.9-0.4,1.5-0.7,1.9
		c-0.3,0.4-0.8,0.8-1.4,1s-1.3,0.4-2.1,0.4c-0.8,0-1.5-0.2-2.1-0.5c-0.5-0.3-0.8-0.7-0.9-1.2c-0.1-0.5,0-1.2,0.2-2.1l0.2-0.8H18
		l-0.3,1.5c-0.1,0.4-0.1,0.8-0.1,0.9c0,0.1,0.2,0.2,0.4,0.2s0.4-0.1,0.5-0.2c0.1-0.2,0.2-0.4,0.3-0.7c0.1-0.7,0.1-1.2,0-1.4
		c-0.1-0.2-0.6-0.6-1.2-1.1c-0.7-0.5-1.1-0.9-1.3-1.1c-0.2-0.2-0.4-0.6-0.4-1s-0.1-0.9,0.1-1.6c0.2-0.9,0.5-1.6,0.8-2
		c0.3-0.4,0.8-0.8,1.4-1c0.6-0.2,1.2-0.4,2-0.4c0.8,0,1.5,0.1,2,0.4s0.8,0.6,0.9,1s0,1.1-0.1,2.1L22.7,8.8L22.7,8.8z"/>
</g>
<g>
	<path d="M32.5,17H31l-1.8-3.1c-0.3-0.6-0.6-0.9-0.9-1.1c-0.2-0.2-0.5-0.2-0.9-0.2h-1.2V17h-1.3V6.2h3.2c0.9,0,1.7,0.2,2.3,0.7
		s0.9,1.2,0.9,2.2c0,0.8-0.2,1.4-0.6,1.9s-0.9,0.9-1.6,1.1v0c0.2,0.1,0.4,0.3,0.6,0.4s0.4,0.4,0.5,0.7C30.3,13.3,32.5,16.9,32.5,17z
		 M26.1,7.3v4.1h1.7c0.6,0,1.1-0.2,1.6-0.6c0.4-0.4,0.6-0.9,0.6-1.6c0-0.6-0.2-1-0.6-1.4s-0.9-0.5-1.6-0.5L26.1,7.3L26.1,7.3z"/>
	<path d="M39.6,13.4h-5.4c0,0.9,0.2,1.5,0.7,2s1,0.7,1.8,0.7c0.3,0,0.7,0,1-0.1c0.3-0.1,0.7-0.3,1-0.5l0.6,0.9
		c-0.4,0.3-0.9,0.5-1.3,0.6s-0.9,0.2-1.4,0.2c-1.2,0-2.1-0.3-2.7-1s-1-1.6-1-2.9s0.3-2.2,1-3s1.5-1.1,2.6-1.1s1.8,0.3,2.3,1
		c0.5,0.6,0.8,1.6,0.8,2.7L39.6,13.4L39.6,13.4z M38.4,12.4c0-0.7-0.2-1.3-0.5-1.7s-0.8-0.6-1.4-0.6s-1.1,0.2-1.5,0.6
		s-0.7,1-0.8,1.6L38.4,12.4L38.4,12.4z"/>
</g>
<g>
	<path class="st1" d="M59.7,3.5c-4.2-4.2-10.8-3.9-14.9,0.2c-4.8,4.9-4.5,13.6,1,17.8c4.6,3.5,10.9,3.4,15.3-1.2"/>
	<g>
		<path d="M51.5,10.7c-0.1,0-0.2-0.1-0.2-0.1s-0.2,0-0.3,0c-0.6,0-1.1,0.3-1.5,0.8s-0.5,1.2-0.5,2v3.9h-1.2V9.7H49v1.5h0
			c0.2-0.5,0.4-0.9,0.8-1.2s0.8-0.4,1.2-0.4c0.2,0,0.3,0,0.4,0s0.2,0,0.3,0.1L51.5,10.7L51.5,10.7z"/>
		<path d="M59.3,17.3H58v-1.2h0c-0.2,0.5-0.6,0.8-1,1c-0.4,0.2-0.9,0.4-1.4,0.4c-0.9,0-1.6-0.3-2.1-0.8c-0.5-0.5-0.7-1.4-0.7-2.4
			V9.7h1.2v4.4c0,0.8,0.2,1.4,0.5,1.8s0.8,0.6,1.4,0.6s1.1-0.2,1.5-0.7c0.4-0.4,0.6-1,0.6-1.7V9.7h1.2L59.3,17.3L59.3,17.3z"/>
		<path d="M62.4,7.8c-0.2,0-0.5-0.1-0.6-0.2c-0.2-0.2-0.2-0.4-0.2-0.6s0.1-0.4,0.2-0.6s0.4-0.2,0.6-0.2s0.5,0.1,0.6,0.2
			s0.2,0.4,0.2,0.6S63.2,7.4,63,7.6S62.6,7.8,62.4,7.8z M63,17.3h-1.2V9.7H63V17.3z"/>
		<path d="M69.1,17.2c-0.2,0.1-0.4,0.1-0.6,0.2s-0.4,0.1-0.7,0.1c-0.6,0-1.1-0.2-1.4-0.5c-0.3-0.4-0.5-0.9-0.5-1.6v-4.7h-1.3V9.7
			h1.3V7.8l1.2-0.4v2.3H69v1.1h-1.9v4.5c0,0.4,0.1,0.8,0.2,1c0.2,0.2,0.4,0.3,0.7,0.3c0.2,0,0.3,0,0.4,0c0.1,0,0.3-0.1,0.3-0.1
			L69.1,17.2L69.1,17.2z"/>
	</g>
	<line class="st1" x1="45.8" y1="21.6" x2="36" y2="31.4"/>
</g>
</svg>
