<?xml version="1.0" encoding="UTF-8"?>
<svg id="Livello_1" data-name="Livello 1" xmlns="http://www.w3.org/2000/svg" viewBox="0 0 132.14 23.03">
  <defs>
    <style>
      .cls-1 {
        fill: #000;
      }

      .cls-1, .cls-2 {
        stroke-width: 0px;
      }

      .cls-3 {
        fill: #fff;
      }

      .cls-3, .cls-4 {
        stroke: #28d7ff;
        stroke-linecap: round;
        stroke-miterlimit: 10;
      }

      .cls-4 {
        fill: none;
      }

      .cls-2 {
        fill: #0c00c3;
      }
    </style>
  </defs>
  <g>
    <path class="cls-2" d="M2.71,3.97v8.7H.45V3.97h2.26Z"/>
    <path class="cls-2" d="M8.17,3.97v1.74h-1.34v6.96h-2.26v-6.96h-1.34v-1.74h4.94Z"/>
    <path class="cls-2" d="M13.48,6.6h-2.1v-.64c0-.3-.03-.49-.08-.57s-.14-.12-.27-.12c-.14,0-.24.06-.31.17-.07.11-.1.28-.1.51,0,.29.04.51.12.66.08.15.29.32.64.53,1.01.6,1.64,1.09,1.9,1.47s.39,1,.39,1.85c0,.62-.07,1.08-.22,1.37-.15.29-.43.54-.84.74-.42.2-.9.3-1.45.3-.6,0-1.12-.11-1.55-.34-.43-.23-.71-.52-.84-.88s-.2-.86-.2-1.51v-.57h2.1v1.06c0,.33.03.54.09.63.06.09.16.14.31.14s.26-.06.34-.18c.07-.12.11-.29.11-.53,0-.51-.07-.85-.21-1-.14-.16-.5-.42-1.06-.79-.56-.37-.93-.64-1.12-.81s-.33-.4-.45-.7c-.12-.3-.18-.68-.18-1.14,0-.67.08-1.15.26-1.46.17-.31.44-.55.82-.72.38-.17.84-.26,1.38-.26.59,0,1.09.09,1.5.28.41.19.69.43.82.72.13.29.2.78.2,1.47v.34Z"/>
  </g>
  <g>
    <path class="cls-1" d="M20.74,12.17h-1.07l-1.32-2.19c-.25-.41-.46-.67-.63-.79-.18-.12-.39-.17-.64-.17h-.89v3.15h-.9v-7.7h2.3c.67,0,1.23.18,1.67.53.45.35.67.88.67,1.57,0,.54-.14,1-.42,1.37s-.67.64-1.17.8v.02c.16.1.3.2.42.32s.25.28.39.5l1.6,2.59ZM16.19,5.29v2.92h1.22c.45,0,.82-.15,1.12-.44.3-.29.45-.67.45-1.13,0-.41-.13-.74-.4-.99-.27-.25-.65-.37-1.16-.37h-1.24Z"/>
    <path class="cls-1" d="M25.85,9.62h-3.89c.01.62.18,1.1.49,1.43.31.33.75.5,1.32.5.25,0,.5-.04.74-.11.25-.07.49-.19.74-.35l.41.63c-.31.2-.62.35-.93.44s-.65.14-1.03.14c-.83,0-1.48-.25-1.94-.74s-.7-1.18-.7-2.07.23-1.6.7-2.14c.47-.54,1.08-.81,1.83-.81s1.27.23,1.67.7c.4.47.59,1.11.59,1.94v.44ZM24.94,8.9c0-.51-.13-.9-.37-1.19-.24-.28-.58-.43-1-.43s-.77.15-1.07.44-.47.69-.53,1.18h2.98Z"/>
  </g>
  <g>
    <path class="cls-3" d="M41.27,3.53c-3-4-8.74-3.79-11.67-.85-3.48,3.48-3.22,9.73.72,12.72,3.28,2.49,7.78,2.42,10.95-.87"/>
    <g>
      <path class="cls-1" d="M33.37,7.7c-.07-.02-.13-.04-.18-.05-.05,0-.12-.01-.2-.01-.45,0-.8.19-1.06.57-.26.38-.39.86-.39,1.43v2.8h-.88v-5.5h.88v1.09h.02c.13-.39.32-.68.57-.88.26-.2.56-.3.89-.3.11,0,.21,0,.28.02.08.01.15.03.21.05l-.15.78Z"/>
      <path class="cls-1" d="M38.93,12.45h-.88v-.87h-.02c-.18.33-.42.58-.7.75-.28.17-.62.25-1,.25-.66,0-1.15-.2-1.47-.59-.33-.39-.49-.98-.49-1.76v-3.29h.88v3.15c0,.58.11,1.02.33,1.31s.56.44,1,.44.78-.16,1.06-.48c.28-.32.42-.73.42-1.24v-3.17h.88v5.5Z"/>
      <path class="cls-1" d="M41.16,5.63c-.18,0-.33-.06-.45-.18-.12-.12-.18-.27-.18-.44s.06-.32.18-.44c.12-.12.27-.18.45-.18s.33.06.45.18c.12.12.18.27.18.44s-.06.32-.18.44c-.12.12-.27.18-.45.18ZM41.59,12.45h-.88v-5.5h.88v5.5Z"/>
      <path class="cls-1" d="M45.99,12.39c-.15.06-.3.11-.44.14-.14.03-.31.05-.49.05-.44,0-.78-.13-1.03-.38-.25-.26-.37-.63-.37-1.14v-3.35h-.95v-.75h.95v-1.34l.88-.28v1.63h1.39v.75h-1.39v3.24c0,.31.06.54.17.68.11.14.28.21.51.21.11,0,.21-.01.31-.04s.18-.05.25-.09l.21.67Z"/>
    </g>
    <line class="cls-4" x1="30.27" y1="15.53" x2="23.27" y2="22.53"/>
  </g>
</svg>