<?xml version="1.0" encoding="UTF-8"?>
<svg id="Livello_1" data-name="Livello 1" xmlns="http://www.w3.org/2000/svg" viewBox="0 0 700.51 523.63">
  <defs>
    <style>
      .cls-1 {
        fill: #000;
      }

      .cls-1, .cls-2, .cls-3 {
        stroke-width: 0px;
      }

      .cls-2, .cls-4, .cls-5, .cls-6 {
        fill: none;
      }

      .cls-4 {
        stroke: #7fe4ff;
      }

      .cls-4, .cls-5 {
        stroke-width: 6px;
      }

      .cls-4, .cls-5, .cls-7, .cls-6 {
        stroke-miterlimit: 10;
      }

      .cls-5 {
        stroke: #001400;
      }

      .cls-7 {
        fill: #fff;
      }

      .cls-7, .cls-6 {
        stroke: #4682ff;
        stroke-width: 9px;
      }

      .cls-3 {
        fill: #4682ff;
      }
    </style>
  </defs>
  <g>
    <path class="cls-1" d="M137.84,186.5l-.4.44c-2.93-.18-7.46-.26-13.58-.26s-10.61.09-13.54.26l-.4-.44v-2.94l.44-.44c2.99-.18,4.7-.32,5.14-.44.85-.23,1.35-.78,1.49-1.63.38-2.11.57-6.65.57-13.62v-23.25c0-6.97-.19-11.51-.57-13.62-.15-.85-.64-1.39-1.49-1.63-.44-.12-2.15-.26-5.14-.44l-.44-.44v-2.99l.44-.4c2.81.18,7.32.26,13.54.26s10.68-.09,13.49-.26l.44.4v2.99l-.44.44c-2.99.18-4.7.32-5.14.44-.85.23-1.35.78-1.49,1.63-.38,2.11-.57,6.65-.57,13.62v23.25c0,6.97.19,11.51.57,13.62.15.85.64,1.39,1.49,1.63.44.12,2.15.26,5.14.44l.44.44v2.94Z"/>
    <path class="cls-1" d="M199.63,124.93c-.35,2.17-.54,4.41-.57,6.72l-.09,7.34-.44.44h-2.77l-.48-.4c-.15-3.75-.31-5.95-.48-6.59-.35-1.17-1.29-1.86-2.81-2.07-.59-.09-3.34-.13-8.26-.13h-5.89c-.06,1.03-.09,5.1-.09,12.22v24.96c0,6.97.19,11.51.57,13.62.15.85.64,1.39,1.49,1.63.44.12,2.15.26,5.14.44l.44.44v2.94l-.44.44c-2.9-.18-7.41-.26-13.54-.26s-10.78.09-13.54.26l-.4-.4v-2.99l.44-.44c2.99-.18,4.7-.32,5.14-.44.85-.23,1.35-.78,1.49-1.63.38-2.11.57-6.65.57-13.62v-24.96c0-7.24-.04-11.31-.13-12.22h-6.28c-5.24,0-8.31.16-9.18.48-.47.18-.79.4-.97.66-.26.47-.48,1.41-.66,2.81-.21,1.55-.34,3.15-.4,4.79l-.44.44h-2.77l-.48-.44-.09-7.51c-.03-2.11-.21-4.29-.53-6.55l.4-.44c1.73.29,8.03.44,18.9.44h17.8c10.02,0,16.32-.15,18.9-.44l.44.44Z"/>
    <path class="cls-1" d="M263.61,178.98l-2.02,4.48c-6.18,3.4-13.1,5.1-20.74,5.1-15.29,0-25.75-5.51-31.38-16.52-2.61-5.1-3.91-10.62-3.91-16.57,0-9.61,3.19-17.27,9.58-22.98,6.53-5.89,15.45-8.83,26.76-8.83,7.18,0,14.19,1.3,21.05,3.91l.57.66c-1,4.04-1.61,8.77-1.85,14.19l-.4.44h-2.59l-.44-.48c-.09-3.54-.25-6.01-.48-7.38-3.66-4.13-8.95-6.2-15.86-6.2s-12.7,2.26-16.74,6.77c-4.04,4.51-6.06,10.63-6.06,18.37,0,10.46,3.6,18.49,10.81,24.08,3.84,2.99,8.98,4.48,15.42,4.48,5.86,0,11.59-1.51,17.18-4.53l1.1,1.01Z"/>
  </g>
  <path class="cls-5" d="M235.83,65.37c-4.27-3.53-63.32-55.15-138.57-31.66-6.89,2.15-69.51,22.67-88.85,86.81-15.04,49.9,1.68,107.7,44.94,139.91,49.43,36.81,134.3,36.02,182.48-10.21"/>
  <line class="cls-2" x1="192.77" y1="276.93" x2="281.79" y2="443.24"/>
  <line class="cls-5" x1="172.5" y1="284.12" x2="219.83" y2="420.3"/>
  <path class="cls-4" d="M216.06,81.57c-3.53-2.91-52.79-45.78-114.94-26.38-5.69,1.78-57.41,18.72-73.38,71.7-12.42,41.21,1.39,88.95,37.11,115.56,40.82,30.4,118.93,28.6,158.72-9.59"/>
  <path class="cls-7" d="M218.64,355.15c26.21-7.81,44.01-26.35,41.9-41.64-2.5-18.13-21.93-49.96-66.95-27.45"/>
  <line class="cls-6" x1="280.97" y1="403.79" x2="222.82" y2="355.96"/>
  <g>
    <path class="cls-3" d="M323.28,369.92c.89,2.56-.2,6.36-3.27,11.41-3.07,5.05-7.31,8.52-12.72,10.4-4.16,1.45-7.88,1.27-11.18-.52-3.3-1.79-5.76-5.02-7.38-9.7-2.39-6.89-2.2-14.19.57-21.91,2.78-7.72,6.93-12.54,12.46-14.46,2.75-.96,5.27-.85,7.55.31,2.28,1.17,3.84,2.95,4.68,5.36,1.49,4.28.85,9.07-1.91,14.37-2.76,5.3-7.1,9.81-13,13.51-.68.43-.89,1-.65,1.71.41,1.18,1.32,2.12,2.74,2.83,1.42.71,3,.76,4.75.15,4.94-1.72,8.97-5.97,12.07-12.75.59-1.31,1.33-2.12,2.22-2.42,1.48-.51,2.5.06,3.07,1.7ZM296.26,371.99c3.61-2.14,6.46-4.99,8.54-8.55,2.08-3.56,2.77-6.38,2.05-8.45-.28-.81-.75-1.42-1.39-1.81-.65-.4-1.33-.47-2.04-.22-2.14.74-3.97,3.14-5.48,7.2-1.51,4.06-2.07,8-1.68,11.83Z"/>
    <path class="cls-3" d="M345.41,378.73c-4.06,1.41-7.53,1.38-10.42-.1-2.89-1.48-5.01-4.19-6.38-8.12-2.15-6.2-1.96-13.78.58-22.74,2.54-8.96,6.23-14.28,11.08-15.97,2.34-.81,4.73-.34,7.19,1.41,2.46,1.75,4.12,3.88,4.99,6.39.82,2.36.94,4.11.35,5.23-.59,1.13-1.29,1.83-2.1,2.11-2.39.83-4.35-.33-5.89-3.5-1.13-2.31-2.15-3.3-3.06-2.99-1.92.67-3.5,4.28-4.75,10.83-1.25,6.56-1.16,11.89.27,15.99,1.15,3.32,3.53,4.36,7.12,3.11,3.96-1.38,7.47-4.17,10.53-8.37,1.42-2.01,2.69-3.21,3.8-3.59,1.35-.47,2.26-.03,2.74,1.32.66,1.9-.66,5.12-3.94,9.66-3.29,4.55-7.32,7.65-12.09,9.31Z"/>
    <path class="cls-3" d="M374.83,345.72l.22-1.4c.9-7.01,2.42-12.98,4.55-17.9,2.14-4.92,4.84-7.95,8.11-9.08,2.51-.87,4.8-.89,6.86-.07,2.07.83,3.43,2.19,4.09,4.08.41,1.18.49,2.29.25,3.33-.25,1.04-.85,1.72-1.81,2.05-1.53.53-3.13.39-4.82-.43-1.17-.5-2.01-.67-2.53-.49-1.84.64-3.94,4.58-6.27,11.82-2.34,7.24-2.7,14.59-1.1,22.05.45,2.16.35,3.81-.3,4.96-.65,1.15-1.77,2-3.37,2.56-1.7.59-3.24.04-4.62-1.64-1.38-1.68-2.84-4.71-4.36-9.09-.62-1.8-1.42-4.24-2.38-7.32-.9-2.91-1.84-6.53-2.82-10.85-.25-1.12-.46-2-.63-2.64-.62-2.49-.94-4.23-.97-5.23-.03-1,.34-2.07,1.09-3.21.76-1.15,1.77-1.94,3.02-2.37,1.33-.46,2.47-.43,3.42.09.95.52,1.59,1.24,1.9,2.15.4,1.16.68,3.75.84,7.77.04,1.39.23,3.01.57,4.85l1.05,6Z"/>
    <path class="cls-3" d="M432.33,331.11c-.87,5.13-2.41,9.5-4.65,13.11-2.23,3.62-4.95,5.98-8.14,7.09-1.9.66-4.15.33-6.78-.99-2.62-1.32-4.65-4.05-6.09-8.18-1.02-2.93-1.81-7.6-2.39-14.01-.41-5.32-1.06-9.24-1.94-11.77.26-2.41,1.44-3.98,3.53-4.7,1.43-.5,2.73-.42,3.91.23,1.18.65,1.93,1.46,2.27,2.42.61,1.75.86,4.44.75,8.09-.05,2.17.13,5.15.52,8.94.39,3.79.76,6.18,1.1,7.16,1.14,3.27,2.38,4.67,3.74,4.2,2.14-.74,4.32-3.8,6.53-9.18,2.21-5.37,3.12-10.4,2.74-15.09-.35-4.59-.33-7.69.08-9.29.41-1.6,1.4-2.68,2.97-3.23,2.56-.89,4.33.09,5.32,2.95.15.42.23,1.33.25,2.73.06,4.86,1.04,10.02,2.94,15.48,2.22,6.4,4.63,9.84,7.24,10.35.86.17,1.39.56,1.61,1.18.31.89-.03,1.94-1.01,3.16-.98,1.22-2.04,2.03-3.17,2.42-1.94.68-3.91-.18-5.91-2.56-2-2.38-3.8-5.88-5.41-10.51Z"/>
    <path class="cls-3" d="M458.37,275.74c.61,1.75.35,3.55-.76,5.42-1.12,1.86-2.25,3-3.41,3.4-1.48.51-3,.35-4.57-.48-1.57-.83-2.57-1.86-3-3.09-.62-1.77-.55-3.4.2-4.89s2.18-2.6,4.3-3.33c1.65-.57,3.15-.55,4.51.07,1.36.62,2.27,1.59,2.73,2.92ZM451.09,312.26v.04c-.76-4.75-1.25-7.44-1.47-8.08-.63-1.82-.76-3.48-.39-4.99.37-1.51,1.27-2.51,2.7-3,1.67-.58,3.11-.64,4.32-.18,1.21.46,1.98,1.19,2.33,2.17.34.98.59,3.17.75,6.56l.06.89c.3,5.22.83,9.38,1.6,12.47.77,3.1,1.48,5.56,2.12,7.41.52,1.5,1.48,3.42,2.87,5.74.23.42.39.77.5,1.07.2.57-.07,1.51-.81,2.85s-1.72,2.21-2.95,2.64c-3.25,1.13-5.72-.77-7.43-5.69-1.45-4.18-2.63-9.48-3.54-15.89-.22-1.41-.43-2.75-.64-3.99Z"/>
    <path class="cls-3" d="M483.32,294.94c-.22.08.04,3.06.78,8.95.74,5.89,1.31,9.42,1.71,10.57.7,2.02,1.41,3.35,2.11,4,.71.65,1.55.8,2.54.46,1.38-.48,2.62-1.18,3.72-2.1s2.39-2.57,3.88-4.97c.91-1.5,1.81-2.41,2.7-2.72.71-.25,1.36-.24,1.93.01.57.26.95.66,1.14,1.2.75,2.17-.14,5.23-2.68,9.18-2.54,3.96-5.75,6.61-9.64,7.96-3.25,1.13-6.06,1.03-8.43-.29-2.38-1.32-4.19-3.78-5.44-7.37-1.15-3.32-2.22-10.38-3.19-21.18-1.51.72-2.58,1.19-3.19,1.4l-.78.27c-1.13.39-2.41.42-3.83.09-1.43-.33-2.42-1.31-2.98-2.93-.72-2.07.09-3.5,2.43-4.32l7.79-3.04c0-3.33-.26-7.61-.78-12.84-.35-3.24.69-5.28,3.12-6.13,1.35-.47,2.55-.43,3.6.13,1.05.56,1.75,1.34,2.1,2.35.14.39.41,4.56.83,12.49,7.58-3.41,11.76-5.24,12.52-5.51,1.3-.45,2.23-.56,2.78-.33.55.24,1.01.9,1.39,1.98.76,2.19-.61,4.22-4.12,6.11l-11.99,6.56Z"/>
  </g>
  <line class="cls-5" x1="187.53" y1="278.32" x2="234.86" y2="414.49"/>
  <line class="cls-5" x1="216.68" y1="420.26" x2="237.28" y2="412.47"/>
</svg>